# xmcd
#
# Track frame offsets:
#	150
#	14381
#	29735
#	44924
#	60290
#	75498
#	88741
#	101635
#	116711
#	131766
#	145382
#
# Disc length: 2142 seconds
#
# Revision: 1
# Processed by: cddbd v1.5.2PL0 Copyright (c) Steve Scherf et al.
# Submitted via: audiograbber 1.83.01
#
DISCID=9b085c0b
DTITLE=Travis List - This Corner
DYEAR=2014
DGENRE=Country
TTITLE0=All I Know About Women
TTITLE1=It Must Not Hurt Enough
TTITLE2=That's Just the Kinda Woman She Is 
TTITLE3=Drunk Talking
TTITLE4=In This Corner
TTITLE5=Your Memory Burns (More Than The Whiskey)
TTITLE6=I Really Liked Her But
TTITLE7=I've Got One of Those Too
TTITLE8=You Shouldn't Play With Fire
TTITLE9=Like A Chicken With His Head Cut Off
TTITLE10=Fountain of Youth
EXTD=Produced by Jerry Salley.
EXTT0=
EXTT1=
EXTT2=
EXTT3=
EXTT4=
EXTT5=
EXTT6=
EXTT7=With Kristy Cox
EXTT8=
EXTT9=
EXTT10=
PLAYORDER=
